    <svg
      xmlns="http://www.w3.org/2000/svg"
      width="582"
      height="210"
      fill="none"
      viewBox="0 0 582 210"
    >
      <path
        fill="#FF6060"
        d="M187.043 163.664h-32.832V206h-45.504v-42.336H.131v-31.392L95.171 4.4h48.96L56.003 125.648h54.144V87.92h44.064v37.728h32.832v38.016zm100.355 45.792c-16.704 0-31.584-4.128-44.64-12.384-13.056-8.256-23.328-20.16-30.816-35.712-7.296-15.744-10.944-34.464-10.944-56.16 0-21.696 3.648-40.32 10.944-55.872 7.488-15.744 17.76-27.744 30.816-36C255.814 5.072 270.694.944 287.398.944s31.584 4.128 44.64 12.384c13.056 8.256 23.232 20.256 30.528 36 7.488 15.552 11.232 34.176 11.232 55.872 0 21.696-3.744 40.416-11.232 56.16-7.296 15.552-17.472 27.456-30.528 35.712-13.056 8.256-27.936 12.384-44.64 12.384zm0-39.456c12.288 0 21.888-5.28 28.8-15.84 7.104-10.56 10.656-26.88 10.656-48.96 0-22.08-3.552-38.4-10.656-48.96-6.912-10.56-16.512-15.84-28.8-15.84-12.096 0-21.696 5.28-28.8 15.84-6.912 10.56-10.368 26.88-10.368 48.96 0 22.08 3.456 38.4 10.368 48.96 7.104 10.56 16.704 15.84 28.8 15.84zm293.676-6.336h-32.832V206h-45.504v-42.336H394.162v-31.392L489.202 4.4h48.96l-88.128 121.248h54.144V87.92h44.064v37.728h32.832v38.016z"
      ></path>
    </svg>